<svg fill="none" height="31" viewBox="0 0 213 31" width="213" xmlns="http://www.w3.org/2000/svg"><g fill="#000"><path d="m43.5084 1.24609c-1.5984 1.68054-2.0897 2.58292-3.2369 5.12382l-10.6093 24.38789-7.5076-17.0922-7.4181 17.0922-10.69703-24.38789c-1.10696-2.5409-1.59468-3.36108-3.238689-5.12382h13.566719c-.5006.40278-.9016.91555-1.1718 1.49847-.2703.58292-.4025 1.2203-.3864 1.86261 0 .98458.1644 1.68054.6978 2.9519l4.0571 9.68133 2.992-7.2135-1.6714-3.90359c-.9827-2.25411-1.6805-3.65335-2.6632-4.87722h13.5666c-1.3115.86037-1.9673 1.96733-1.9673 3.36108 0 .98458.1626 1.68054.696 2.9519l4.1392 9.68133 4.0991-9.67219c.5334-1.27867.7307-1.96733.7307-2.91172 0-1.22935-.8604-2.70347-1.845-3.40126z"></path><path d="m57.6127 22.9697c-1.3116 5.6974-4.4662 7.5825-9.0566 7.5825-5.2462 0-10.1655-3.8104-10.1655-10.9837 0-6.8866 4.3438-11.76381 10.0467-11.76381 3.7301 0 8.9763 1.92714 8.9763 10.04671h-12.3867c.8604 4.3438 3.6881 6.5979 7.6227 6.5979 2.0094-.0036 3.4031-.3726 4.9631-1.4796zm-12.8324-7.9515v.5261h5.4106c0-4.0991-.9023-5.3686-2.6231-5.3686-1.7627.0073-2.7875 1.7682-2.7875 4.8425z"></path><path d="m82.4535 8.66505c-3.403-3.23687-6.7586-4.91741-9.3452-4.91741v18.08406c0 3.6534.9426 5.8618 3.4433 8.1159h-15.5012c2.5007-2.2541 3.4433-4.468 3.4433-8.1159v-18.08406c-2.5829 0-6.1066 1.68054-9.3453 4.91741l1.6404-8.6474719c1.1051.8603629 3.1547 1.2293519 5.4508 1.2293519h13.1155c2.2961 0 4.3438-.365336 5.4508-1.2293519z"></path><path d="m91.8703 29.9382h-13.0334c1.5984-1.8851 2.2943-3.1145 2.2943-6.1065v-6.6436c0-2.3364-.3269-3.4433-1.8851-4.8791l-.9023-.8183 9.8384-3.68992v5.12752c.9426-2.95195 2.4167-5.12387 4.8352-5.12387 1.9673 0 3.2387 1.39376 3.2387 3.44327 0 2.1719-1.3536 3.6881-3.2387 3.6881-.4092-.9426-1.3937-1.392-2.2943-1.392-.7307 0-1.4358.2046-1.8047.5736v9.464c0 3.1601.5333 4.0187 2.9519 6.3568z"></path><path d="m118.805 26.1682c-.491 2.5811-2.623 4.384-5.533 4.384-2.458 0-4.343-1.4741-4.917-3.1546-1.24 2.2121-3.531 3.1546-5.99 3.1546-3.4027 0-5.697-2.2541-5.697-5.3284 0-3.6058 2.5829-6.1065 8.525-7.5405l2.74-.6557v-3.6899c0-2.2943-.778-3.2369-2.172-3.2369-1.311 0-2.172.8604-2.172 2.0495 0 1.0248.492 1.6806 1.352 2.4989 0 1.3116-2.05 2.6651-4.179 2.6651-.472.0103-.9398-.075-1.377-.2506-.4372-.1755-.8344-.4378-1.1675-.771-.3332-.3331-.5954-.7303-.771-1.1675s-.2608-.9055-.2506-1.3765c0-3.4835 3.8521-5.94401 9.4991-5.94401 5.902 0 9.018 2.50071 9.018 8.07391v8.8137c0 1.1069.656 1.8431 1.68 1.8431.629 0 1.08-.1224 1.412-.3672zm-10.861-.6156v-6.5997l-.532.1644c-1.762.5334-2.951 1.6805-2.951 3.9766 0 1.9674.778 3.1547 2.049 3.1547.65 0 1.184-.2046 1.429-.696z"></path><path d="m129.907 29.9382h-11.026c1.147-1.1069 1.885-2.74 1.885-6.1065v-6.6436c0-2.256-.287-3.4031-1.644-4.6727l-.942-.8622 10.163-3.85242v3.19672c1.189-1.96737 3.69-3.19672 6.189-3.19672 3.935 0 6.108 2.13173 6.108 5.94402v11.4806c0 2.3363.614 3.7721 1.599 4.7147h-10.734c1.065-1.0248 1.352-2.4186 1.352-3.5255v-11.7236c0-1.7226-.574-2.5829-2.172-2.5829-.392-.0106-.782.0565-1.148.1972-.366.1408-.7.3525-.984.623v13.4844c0 1.107.287 2.4661 1.354 3.5255z"></path><path d="m144.251 28.7493v-7.0089c2.95 3.8524 6.028 5.9842 8.894 5.9842 1.392 0 2.048-.7307 2.048-1.7628 0-.9827-.532-1.5563-1.474-1.9253l-4.75-1.7627c-3.653-1.3536-5.297-3.6077-5.297-6.9688 0-4.3438 3.566-7.50031 8.649-7.50031 2.74 0 5.78.77999 7.296 1.88512v5.98419c-1.885-3.3191-4.96-5.164-7.952-5.164-1.516 0-2.296.4914-2.296 1.4339 0 .9426.574 1.3116 1.845 1.845l5.619 2.3034c2.828 1.1472 4.099 3.5657 4.099 6.4756 0 4.795-3.483 7.9916-8.731 7.9916-2.751-.0107-5.466-.6288-7.95-1.8102z"></path><path d="m161.748 10.4698 2.375-3.65335c3.036-4.58494 5.46-6.7988719 9.554-6.7988719 3.196 0 5.246 1.3937519 5.246 3.4834619 0 1.80476-1.476 3.11631-4.591 3.11631 0-2.54273-1.435-3.48529-2.869-3.48529s-2.541 1.02476-2.541 2.7053c0 1.14715.614 2.29612 2.499 2.58291h4.555l-1.644 2.04953h-2.787v12.1729c0 2.2943.365 4.3439 2.74 6.4354l.984.8604h-14.136c1.644-1.644 2.623-3.6534 2.623-6.5998v-12.8689z"></path><path d="m193.878 22.9697c-1.311 5.6974-4.468 7.5825-9.058 7.5825-5.246 0-10.164-3.8104-10.164-10.9837 0-6.8866 4.344-11.76381 10.047-11.76381 3.73 0 8.976 1.92714 8.976 10.04671h-12.379c.86 4.3438 3.688 6.5979 7.623 6.5979 2.009-.0036 3.403-.3726 4.955-1.4796zm-12.825-7.9515v.5261h5.411c0-4.0991-.903-5.3686-2.623-5.3686-1.763.0073-2.788 1.7682-2.788 4.8425z"></path><path d="m207.616 29.9385h-13.035c1.599-1.8851 2.296-3.1145 2.296-6.1066v-6.6436c0-2.3363-.328-3.4433-1.885-4.879l-.902-.8184 9.838-3.68621v5.12381c.943-2.9519 2.419-5.12381 4.837-5.12381 1.968 0 3.237 1.39375 3.237 3.44331 0 2.1719-1.352 3.688-3.237 3.688-.411-.9425-1.393-1.3919-2.296-1.3919-.73 0-1.434.2046-1.803.5736v9.464c-.007 3.1601.541 4.0186 2.95 6.3568z"></path></g></svg>